/* XPM */
static char *result[] = {
/* columns rows colors chars-per-pixel */
"32 32 120 2 ",
"   c #000000",
".  c #000B0D",
"X  c #1C0000",
"o  c #001314",
"O  c #001B1B",
"+  c #1B1B1B",
"@  c #201C1C",
"#  c #002425",
"$  c #053636",
"%  c #093C3C",
"&  c #1F3B3B",
"*  c #252525",
"=  c #202828",
"-  c #2C2C2C",
";  c #332323",
":  c #392D2D",
">  c #313131",
",  c #3B3B3B",
"<  c #490000",
"1  c #5B1B19",
"2  c #6A0000",
"3  c #790000",
"4  c #5A3433",
"5  c #742624",
"6  c #702A29",
"7  c #7A2E2D",
"8  c #713433",
"9  c #793532",
"0  c #004E4E",
"q  c #1B4C4C",
"w  c #334545",
"e  c #354A4A",
"r  c #394E4E",
"t  c #3D5050",
"y  c #464444",
"u  c #4B4343",
"i  c #474848",
"p  c #4C4C4C",
"a  c #425353",
"s  c #614E4E",
"d  c #7C4A49",
"f  c #7A5756",
"g  c #4C6161",
"h  c #556161",
"j  c #777777",
"k  c gray50",
"l  c #830200",
"z  c #8D0900",
"x  c #870F08",
"c  c #9A0600",
"v  c #9B0900",
"b  c #83140E",
"n  c #9A1006",
"m  c #96140D",
"M  c #931B14",
"N  c #A50300",
"B  c #A20800",
"V  c #AB0E00",
"C  c #A01A13",
"Z  c #9E241F",
"A  c #8B2520",
"S  c #8A2E2B",
"D  c #972823",
"F  c #982823",
"G  c #82312F",
"H  c #88302E",
"J  c #823331",
"K  c #A22722",
"L  c #AF2F2B",
"P  c #B42B25",
"I  c #CA0D04",
"U  c #D60C04",
"Y  c #DD0C00",
"T  c #C61100",
"R  c #CB1100",
"E  c #C61A0C",
"W  c #CD1C0F",
"Q  c #D41501",
"!  c #DB1601",
"~  c #DC1B0A",
"^  c #CA1E13",
"/  c #E00A04",
"(  c #E80D00",
")  c #FD0200",
"_  c #F40E01",
"`  c #FA0900",
"'  c #E31601",
"]  c #EC1600",
"[  c #E31A07",
"{  c #EA1902",
"}  c #E1150C",
"|  c #E01B09",
" . c #EE1E0F",
".. c #F41400",
"X. c #F21900",
"o. c #F01C0E",
"O. c #D22115",
"+. c #EC2111",
"@. c #CA2921",
"#. c #834543",
"$. c #858585",
"%. c #8D8D8D",
"&. c #908F8F",
"*. c #939393",
"=. c #9E9E9E",
"-. c #A4A4A4",
";. c #ABABAB",
":. c #B5B5B5",
">. c #B8B5B5",
",. c #BABABA",
"<. c #C4C4C4",
"1. c #CBCBCB",
"2. c #D4D4D4",
"3. c #D9D7D7",
"4. c #DBDBDB",
"5. c #E2E2E2",
"6. c #EBEBEB",
"7. c #F3F3F3",
"8. c #FDFDFD",
"9. c None",
/* pixels */
"9.9.9.9.9.9.9.9.9.9.9.9.9.9.9.9.9.9.9.9.9.9.9.9.9.9.9.9.9.9.9.9.",
"9.9.9.9.9.9.9.9.9.9.9.9.9.9.9.9.9.9.9.9.9.9.9.9.9.9.9.9.9.9.9.9.",
"9.9.9.9.9.9.9.9.9.9.9.9.9.9.9.9.9.9.9.9.9.9.9.9.9.9.9.9.9.9.9.9.",
"9.9.9.9.9.9.9.9.9.9.9.9.9.9.9.9.9.9.9.9.9.9.9.9.9.9.9.9.9.9.9.9.",
"9.9.9.9.9.9.9.9.9.9.9.9.9.9.9.9.9.9.9.9.9.9.9.9.9.9.9.9.9.9.9.9.",
"9.9.9.9.9.9.9.9.9.9.9.9.9.9.9.9.9.9.9.9.9.9.9.9.9.9.9.9.9.9.9.9.",
"9.9.9.9.9.9.9.9.9.9.9.9.9.w e o     O r w 9.9.9.9.9.9.9.9.9.9.9.",
"9.9.9.9.9.9.9.9.9.9.X 9.9.9 G m v B M G 9 9.9.X 9.9.9.9.9.9.9.9.",
"9.9.9.9.9.9.9.9.9.    % q M N Q ! ! Q N A 0 $   9.9.9.9.9.9.9.9.",
"9.9.9.9.9.9.9.9.w 5 l K L W Q ' ' ' ! Q ^ L F l 6 w 9.9.9.9.9.9.",
"9.9.9.9.9.9.9.u a S N R Y { X.X.X.X.X.X.] / T N J t 9.9.9.9.9.9.",
"9.9.9.9.9.9.9.9.# C R ! { _ ` ) ` ` ` ` _ { Q R M # 9.9.9.9.9.9.",
"9.9.9.9.9.9.9.9.  V ! { X.) ) ) ) ) ) ) ` X.{ ! c   9.9.9.9.9.9.",
"9.9.9.9.9.9.w 7 z U ) ) ` ) ) ......_ ) ) ) ` ) I z 8 w 9.9.9.9.",
"9.9.9.9.9.9.e J N / ) ) ) ) )  .+.+.o.) ) ) ) ) U B 9 e 9.9.9.9.",
"9.9.9.9.9.9.. n ! ' ..X.X.' Q 2 < 4 S ! ' X._ ) ( Q b . 9.9.9.9.",
"9.9.9.9.9.9.. M O.~ ] { { Q E s a g f R Q X.] ) } O.b . 9.9.9.9.",
"9.9.9.9.9.9.p ;   l V R ~ 2 = 3.5.1.>.  l [ T V 3   : i 9.9.9.9.",
"9.9.9.9.9.9., p h #.F P @.1 & 5.6.2.,.O 6 @.P D d h i , 9.9.9.9.",
"9.9.9.9.9.9.  *.5.%.        i 7.8.7.3.@         =.5.$.  9.9.9.9.",
"9.9.9.9.9.9.  $.>.=.%.&.&.$.$.3.4.1.,.$.$.*.*.*.-.>.j   9.9.9.9.",
"9.9.9.9.9.9.9.9.  <.8.7.8.3.1.+     > 1.4.8.7.8.;.  9.9.9.9.9.9.",
"9.9.9.9.9.9.9.9.  :.5.6.7.5.4.,.:.;.,.4.5.7.5.5.-.  9.9.9.9.9.9.",
"9.9.9.9.9.9.9.p > ;.2.6.7.8.8.8.8.8.8.8.8.7.5.3.=.- 9.9.9.9.9.9.",
"9.9.9.9.9.9.9.9.9.%.=.-.;.3.5.6.7.7.6.5.2.;.-.=.$.9.9.9.9.9.9.9.",
"9.9.9.9.9.9.9.9.9.+ -     ,.3.6.7.7.6.2.;.    - 9.9.9.9.9.9.9.9.",
"9.9.9.9.9.9.9.9.9.9.9.9.9.$.*.*.*.*.*.*.$.9.9.9.9.9.9.9.9.9.9.9.",
"9.9.9.9.9.9.9.9.9.9.9.9.9.* *         - * 9.9.9.9.9.9.9.9.9.9.9.",
"9.9.9.9.9.9.9.9.9.9.9.9.9.9.9.9.9.9.9.9.9.9.9.9.9.9.9.9.9.9.9.9.",
"9.9.9.9.9.9.9.9.9.9.9.9.9.9.9.9.9.9.9.9.9.9.9.9.9.9.9.9.9.9.9.9.",
"9.9.9.9.9.9.9.9.9.9.9.9.9.9.9.9.9.9.9.9.9.9.9.9.9.9.9.9.9.9.9.9.",
"9.9.9.9.9.9.9.9.9.9.9.9.9.9.9.9.9.9.9.9.9.9.9.9.9.9.9.9.9.9.9.9."
};
