/* XPM */
static char *result[] = {
/* columns rows colors chars-per-pixel */
"32 32 129 2 ",
"   c #000000",
".  c #000808",
"X  c #0C0B0B",
"o  c #140000",
"O  c #1F0000",
"+  c #001414",
"@  c #001D1D",
"#  c #0B1919",
"$  c #141515",
"%  c #151919",
"&  c #1F1C1C",
"*  c #2C0000",
"=  c #3E0000",
"-  c #201515",
";  c #3D1313",
":  c #361818",
">  c #3F1818",
",  c #032525",
"<  c #002A2A",
"1  c #232323",
"2  c #2B2B2B",
"3  c #333232",
"4  c #3E3E3E",
"5  c #4B0000",
"6  c #530000",
"7  c #5B0000",
"8  c #54100F",
"9  c #431212",
"0  c #4D1617",
"q  c #531313",
"w  c #521E1E",
"e  c #5C1919",
"r  c #730000",
"t  c #7C0303",
"y  c #7E0B0B",
"u  c #6C1212",
"i  c #621919",
"p  c #402121",
"a  c #632020",
"s  c #6A2424",
"d  c #6A2F2E",
"f  c #6E3434",
"g  c #424242",
"h  c #4E4E4E",
"j  c #535353",
"k  c #5C5C5C",
"l  c #6C5757",
"z  c #785B5B",
"x  c #636464",
"c  c #6B6464",
"v  c #676B6B",
"b  c #6A6A6A",
"n  c #766363",
"m  c #706F6F",
"M  c #757474",
"N  c #767979",
"B  c #7B7A7A",
"V  c #810000",
"C  c #890404",
"Z  c #820E0D",
"A  c #8B0909",
"S  c #9F0505",
"D  c #811111",
"F  c #891515",
"G  c #A50405",
"H  c #AB0304",
"J  c #AA0B0B",
"K  c #B40001",
"L  c #BA0203",
"P  c #B50A0A",
"I  c #BC0D0D",
"U  c #B91111",
"Y  c #9C302F",
"T  c #C00000",
"R  c #CA0202",
"E  c #CF0A09",
"W  c #D10203",
"Q  c #DA0606",
"!  c #D70B0A",
"~  c #DC0C0B",
"^  c #E60707",
"/  c #E90404",
"(  c #EF0A09",
")  c #F20202",
"_  c #FE0101",
"`  c #F30708",
"'  c #F60B0B",
"]  c #E71313",
"[  c #F61D1D",
"{  c #FA1C1C",
"}  c #C3201F",
"|  c #D32727",
" . c #EA2322",
".. c #F72524",
"X. c #FA2020",
"o. c #816868",
"O. c #807F7F",
"+. c #F34444",
"@. c #F04C4C",
"#. c #F84F4F",
"$. c #F65353",
"%. c #FC5353",
"&. c #FF5C5D",
"*. c #FF5F60",
"=. c #858585",
"-. c #888787",
";. c #8B8B8B",
":. c #949393",
">. c #9B9B9B",
",. c #A5A5A5",
"<. c #AFA5A5",
"1. c #ADADAD",
"2. c #B6ACAC",
"3. c #B4B4B4",
"4. c #BBBBBB",
"5. c #F48D8D",
"6. c #F99695",
"7. c #F99D9D",
"8. c #C3C2C2",
"9. c #C8C8C7",
"0. c #CCCCCC",
"q. c #D4D3D3",
"w. c #DADADA",
"e. c #E3E3E3",
"r. c #EDEDED",
"t. c #F7EFEF",
"y. c #F9EEEE",
"u. c #F3F3F3",
"i. c #FDFDFD",
/* pixels */
"r.r.r.r.r.u.i.i.i.i.i.i.i.r.r.r.r.r.r.u.i.i.i.i.i.i.i.r.r.r.r.r.",
"r.r.r.r.r.u.i.i.i.q.b B N b b M M M x >.i.i.i.i.i.i.i.u.r.r.r.r.",
"r.r.r.r.r.i.i.i.i.q.                  N i.i.i.i.i.i.i.r.r.r.r.r.",
"r.r.r.r.w.9.q.0.q.<.7 s e 0 0 q 0 w = n 0.q.q.0.w.i.i.u.r.r.r.r.",
"i.u.i.i.0.        6 ] ( L G H H H H J r         N u.r.i.i.i.u.i.",
"i.i.i.i.q.  < @ @ i ) _ R K L K K K K y @ @ ,   B r.r.i.i.i.i.i.",
"i.i.>.x z K U E L | %.%. .( Q K K K K G A C A C f v x e.i.i.i.i.",
"i.i.M   6 ' _ _ _ { &.&.{ _ / H H K K K L L K L V     w.i.i.i.i.",
"i.i.B   a ( _ ..X.$.7.7.@... .W W W W R K K K K D @   w.i.i.i.i.",
"i.i.B   i ` _ %.*.6.y.u.5.&.$._ _ _ _ ^ K K K K Z +   w.i.i.i.i.",
"u.i.M   e ` _ %.&.6.u.y.5.&.$._ _ _ _ ^ K K K K y +   q.i.i.i.i.",
"c v Y T ! _ _ { { #.5.5.+.[ [ _ _ _ _ ^ K K K K G C V c k ,.i.u.",
"    L _ _ _ _ _ _ { &.&.{ _ _ _ _ _ _ ^ K K K K K L J *   B u.r.",
"- + I _ _ _ _ _ _ X.%.$.} K P P P Q / ! K K K K K K G >   -.u.r.",
"o   I _ _ _ _ _ _ _ _ ) 8 + + + + A L K K K K K K L H >   -.r.r.",
"o   J ( ) _ _ _ _ ` ( ~ 5         V J H K K K K K H S :   -.r.r.",
"    9 w F ) _ _ _ ! q 5 2.w.q.q.q.l O u K K K L A ; ; &   =.t.r.",
"  X     5 ' _ _ _ P +   q.i.i.i.i.c   0 H L K L t     $   -.r.r.",
"X   b ;.o.H U P P Z #   0.i.i.i.u.x   : t t y t d x k 1   ;.u.u.",
"1   9.i.q.  , + + + 1   q.i.i.i.i.c   % . . +   k 4.3.g   :.i.i.",
"  . 8.i.9.              9.i.r.i.r.x             k 3.1.g   :.i.i.",
"w.w.O.g N w.w.w.w.w.w.w.B j k k j -.>.>.>.>.>.,.O.4 p 2   :.i.i.",
"i.i.N   m i.i.i.i.i.i.i.k         :.4.3.4.3.3.4.;..       -.i.i.",
"i.i.B   v e.e.u.i.i.i.i.1.-.;.-.;.,.4.3.3.3.3.3.-.  . B -.4.i.i.",
"i.i.B   j 3.1.r.i.i.i.i.i.i.i.i.i.9.3.3.3.3.3.4.-.    w.i.i.i.i.",
"i.i.M   h 1.1.e.i.u.i.i.i.i.i.i.i.9.3.3.1.1.1.3.=.    w.i.i.u.i.",
"r.r.q.q.3.1 g j j M 4.8.4.8.8.8.4.3.3.;.3 g 4 4 3 &   0.u.r.r.r.",
"r.r.r.i.8.        3 3.3.4.3.3.4.3.4.8.-.              0.u.r.r.r.",
"r.r.r.u.q.:.>.>.>.-.=.-.=.-.=.=.-.=.=.B >.>.>.>.>.>.>.w.r.r.r.r.",
"r.r.r.r.r.u.i.i.i.q.                  B i.i.i.i.i.i.i.r.r.r.r.r.",
"r.r.r.r.r.u.i.i.i.0.  3 1 1 & 1 1 2   B i.i.i.i.i.i.i.u.r.r.r.r.",
"r.r.r.r.r.u.i.i.i.u.r.e.e.w.w.w.w.w.w.e.i.i.i.i.i.i.i.r.r.r.r.r."
};
