/* XPM */
static char *result[] = {
/* columns rows colors chars-per-pixel */
"32 32 77 1 ",
"  c #000417",
". c #000518",
"X c #060D1B",
"o c #0C0F1C",
"O c #17141C",
"+ c #1D161A",
"@ c #231A1D",
"# c #291E1E",
"$ c #111220",
"% c #1E1A22",
"& c #221D24",
"* c #2B242B",
"= c #332625",
"- c #34272B",
"; c #35282C",
": c #392B2E",
"> c #202231",
", c #2A2A35",
"< c #352B34",
"1 c #3B2D33",
"2 c #3F3036",
"3 c #462F2D",
"4 c #46322C",
"5 c #5D392F",
"6 c #412F33",
"7 c #433234",
"8 c #4B3433",
"9 c #513431",
"0 c #533A33",
"q c #5C3C33",
"w c #653D2C",
"e c #683F2C",
"r c #603F35",
"t c #5D4233",
"y c #5D433A",
"u c #6A412E",
"i c #70452F",
"p c #654132",
"a c #6C4531",
"s c #6D4A34",
"d c #624039",
"f c #6C453A",
"g c #674A3B",
"h c #6C4C3A",
"j c #714D35",
"k c #734C3C",
"l c #735137",
"z c #785037",
"x c #74533B",
"c c #7A563D",
"v c #755B3C",
"b c #7B5B3E",
"n c #7A603F",
"m c #7F5B40",
"M c #7D6240",
"N c #815B3F",
"B c #825D41",
"V c #836342",
"C c #8B6646",
"Z c #866945",
"A c #8A6A46",
"S c #8E6D49",
"D c #926E4A",
"F c #95724C",
"G c #99754E",
"H c #9A784F",
"J c #9A7750",
"K c #9D7950",
"L c #A27D54",
"P c #A78156",
"I c #A98357",
"U c #AC8559",
"Y c #AF885B",
"T c #B38B5D",
"R c #B98F60",
"E c #B99060",
"W c None",
/* pixels */
"WWWWWWWWWcBWWWWWWWWWNVWWWWWWWWWW",
"WWWWWWWNGAVccCCDDCccBCDBWWWWWWWW",
"WWWWWWWcFHFAFAGGGSDDAGGBWWWWWWWW",
"WWWWWWWGGULGGGGYLGKGKULJNWWWWWWW",
"WWWWWWWGKTTKFGKTLFGFUTLKbWWWWWWW",
"WWWWWWWDGTTTHFTTTGGUTTLFcWWWWWWW",
"WWWWWWCFLTTTPFPPUGKTTTUGDcWWWWWW",
"WWWWWbMSTTTTFHFFFGFUETTKMBWWWWWW",
"WWWWWBmZTTPKFbIYYVAKLTTFvNWWWWWW",
"WWWWWcZJITLFAcBVBcVGJYTKAbWWWWWW",
"WWWWWbSFFFJSbBBNBBbZGFFGSbWWWWWW",
"WWWWBMKIHHFbbttpttxbAKGLLVBWWWWW",
"WWWbVbYEKVBb8  .. -mBVSTTZbbWWWW",
"WWWBvPEIFbB0o##&##O<mcSLEYnVWWWW",
"WWWbAKYKvNb=+@@@@@@OlBvFTKFVWWWW",
"WWWVKFFMvNy$@@@@@@@O7BbvFFHGWWWW",
"WWWVKGSvbBtX@@@@@@@O4VBvZJJGWWWW",
"WWWbSJMvNx=+@@@@@@@@+gBbvFFZWWWW",
"WWWbZFvMFx%@@@@@@@@@%tFVvAFVWWWW",
"WWWbvvMKDg*@@@@&@@@@+qCGAxvMWWWW",
"WWfMvnAGNw*@@@@+@@@@&9zGFMvnkWWW",
"WWfMvnKKB3@@@@@@@@@@@=xGKMvnhWWW",
"WWfmvSHAc;+@@@@@@@@@@&hVFFnvkWWW",
"WWfBvFSxu-+&@@@@@@@@@&rjZKbbkWWW",
"WqBBmZvca<@+++++++++@*tlvZnNNdWW",
"W>xBmcvjx21-;;--;;;-:1gcxcNNN1WW",
"W<kcNNeka121222171222<plpcNcv7WW",
"W0jvNkwj067wuwwwwwww877swsNcjpWW",
"Wqexcawu8eeeuaaaaaauwe9wewxcap1W",
"Wqeesuuu7sasBmNmmbBlss8wuejaee,W",
"WdaiuaiqgbbcWWWWWWWxBbxqiaaiadqW",
"WWWWWWWWWWWWWWWWWWWWWWWWWWWWWWWW"
};
