/* XPM */
static char *result[] = {
/* columns rows colors chars-per-pixel */
"32 32 108 2 ",
"   c #6ABF99",
".  c #6ABF9A",
"X  c #6BBF9A",
"o  c #6FC19B",
"O  c #6AC19C",
"+  c #6BC29C",
"@  c #6DC19C",
"#  c #6EC19C",
"$  c #6CC29C",
"%  c #6CC39C",
"&  c #6CC29D",
"*  c #6DC29D",
"=  c #6CC39D",
"-  c #6DC39D",
";  c #6EC39D",
":  c #6FC39D",
">  c #6EC39E",
",  c #6EC49D",
"<  c #6EC49E",
"1  c #6FC49E",
"2  c #6FC49F",
"3  c #70C29D",
"4  c #70C39D",
"5  c #71C39E",
"6  c #70C49E",
"7  c #71C49F",
"8  c #70C59F",
"9  c #71C59F",
"0  c #72C49F",
"q  c #72C59F",
"w  c #71C5A0",
"e  c #73C4A0",
"r  c #72C5A0",
"t  c #73C5A0",
"y  c #71C6A0",
"u  c #71C6A1",
"i  c #72C6A0",
"p  c #73C6A0",
"a  c #72C7A0",
"s  c #73C7A0",
"d  c #72C6A1",
"f  c #73C6A1",
"g  c #72C7A1",
"h  c #73C7A1",
"j  c #73C7A2",
"k  c #74C5A1",
"l  c #74C7A1",
"z  c #74C5A2",
"x  c #75C6A2",
"c  c #74C7A2",
"v  c #75C7A2",
"b  c #76C6A3",
"n  c #77C7A3",
"m  c #77C7A4",
"M  c #70C8A1",
"N  c #73C8A1",
"B  c #71C9A2",
"V  c #73C8A2",
"C  c #73C9A3",
"Z  c #73CAA3",
"A  c #74C8A2",
"S  c #75C8A2",
"D  c #74C8A3",
"F  c #75C8A3",
"G  c #75C9A3",
"H  c #76C8A2",
"J  c #76C8A3",
"K  c #76C9A3",
"L  c #77C9A3",
"P  c #75C8A4",
"I  c #76C8A4",
"U  c #76C9A4",
"Y  c #77C9A4",
"T  c #76C9A5",
"R  c #77C9A5",
"E  c #75CBA4",
"W  c #77CAA5",
"Q  c #76CBA5",
"!  c #76CCA5",
"~  c #77CCA5",
"^  c #77CCA6",
"/  c #77CDA6",
"(  c #78C9A4",
")  c #79C9A4",
"_  c #78C8A5",
"`  c #79C9A5",
"'  c #78CAA5",
"]  c #79CAA5",
"[  c #7ACAA5",
"{  c #78CAA6",
"}  c #79CAA6",
"|  c #79CAA7",
" . c #79CBA7",
".. c #7ACAA6",
"X. c #7BCAA6",
"o. c #7ACBA7",
"O. c #7CCBA6",
"+. c #7CCBA7",
"@. c #7DCBA7",
"#. c #78CDA6",
"$. c #78CDA7",
"%. c #79CDA7",
"&. c #7ECCA7",
"*. c #7ACBA8",
"=. c #7DCBA8",
"-. c #7BCEA8",
";. c #7DCCA8",
":. c #7ECCA8",
/* pixels */
"o U z 4 k _ @ X 4 4 5 x e 3 n x   # 5 3 t m 5 0 _ 5 . 3 4 4 b x ",
"r $.D N A U g y { W N G A N G F y A  .A A G V A U j y U { h G D ",
"0 E i h p i h h J F i i f h i p h l J l i i h h i h h S F h i p ",
"q Q g h h h h h - 1 h h h h h h h i % i h h h h h h h 1 ; h h h ",
"q Q g h l h h A P w h h h h h h h F d i h h h h h h l F y h h h ",
"* M y i 8 i h c { c - < a 9 8 h h F R 8 O y h 8 i h h U K = = i ",
"7 #...d < i h h i i i [ ` 8 1 h h i a i c X.h < w h h i h i ( [ ",
"7 -.:.A h h h h h h h &.O.h h h h h h g J &.H h h h h h h g ] +.",
"q E u a h F i i h s h g i h A A y i i h h j g h F h y f s h j h ",
"7 %.R i I o.8 - A c h W F i { R - 8 F a F | h c *.h - j S i ' R ",
"q E d h h i h h { R a h h h i h h A { A a i h h i h h U ' h h a ",
"q Q g h h h h h i i h h h h h h h h y h h h h h h h h i i h h h ",
"r ! g h h h h h & - A h h h h h h y + y A h h h h h h < & c h h ",
"6 Z g h h h h c  .c 8 i h h h h h U R y < h h h h h h R F 1 8 h ",
": B y y - i h h l h < 8 h 1 > h h h c 9 - i i - 8 h h h l < 1 g ",
"7 -.;.h i h h h h h h @.X.i d h h h h h J :.v i h h h h h h ] +.",
"9 ! S h h i h l h h h S v h a a l h h h h v l h i h l h h h h v ",
"q / P i F } 8 < i i h U A i ' U > 8 s i F W h c  .h ; i a a U U ",
"q ^ A h c J y 9 W Y h F c h F A 8 h { c c F h h U h 8 I W i F A ",
"q E d h h i h h R U a h h h i h h c Y A i a h h i h h F Y h s h ",
"q Q g h h h h h % , h h h h h h h y $ i h h h h h h h < - h h h ",
"q Q g h l h h c u 1 h h h h h h h j 2 y h h h h h h h d 2 h h h ",
"* M y i 8 d h l ' c - 1 h 8 8 h h F W 8 + y h 8 i h h U K = - a ",
"7 ~ Y y - y h h i i i Y L 1 < h h a i i h ) h - 8 h h i a i J Y ",
"7 -.=.c h h h h h h h @.X.h h h h h h h S @.S h h h h h h g ) O.",
"q E u h h A d i h h h g d h c c i i h h h h h h A h i h h h h g ",
"7 $.T i I  .8 ; c h h R F i { R - 8 S i F } h c o.h - h A i ' R ",
"q E d h h i h h { R i h h h s h h c } A s i h h i h h U { h h h ",
"q E g h h h h h h h h h h h h h h h h h h h h h h h h h h h h h ",
"r ! g h h h h h $ - A h h h h h h y O y A h h h h h h < $ c l h ",
"6 C g h l h h c { h 8 y h h h h h I U y < h h l h h h R F 1 8 h ",
"* M g y - i h h c h - 8 l 1 < h h h A 8 + i h - 8 h h h c - > h "
};
