/* XPM */
static char *result[] = {
/* columns rows colors chars-per-pixel */
"32 32 221 2 ",
"   c #000101",
".  c #02040A",
"X  c #04090A",
"o  c #070904",
"O  c #0D100D",
"+  c #16110A",
"@  c #030D19",
"#  c #150D15",
"$  c #081418",
"%  c #17100B",
"&  c #280600",
"*  c #251F0F",
"=  c #241913",
"-  c #271C16",
";  c #391B1C",
":  c #290C16",
">  c #34271A",
",  c #342414",
"<  c #0D1625",
"1  c #282426",
"2  c #3B2326",
"3  c #292B37",
"4  c #34363D",
"5  c #470307",
"6  c #47292A",
"7  c #592C29",
"8  c #4B3A2D",
"9  c #533828",
"0  c #523933",
"q  c #4B2B39",
"w  c #64272A",
"e  c #702E2B",
"r  c #6B3D3E",
"t  c #623A34",
"y  c #753736",
"u  c #6B302E",
"i  c #584C33",
"p  c #6B5A2F",
"a  c #694A3B",
"s  c #7A483F",
"d  c #695835",
"f  c #71553B",
"g  c #7E673E",
"h  c #3D3D43",
"j  c #483946",
"k  c #693B43",
"l  c #743D41",
"z  c #57565C",
"x  c #52494E",
"c  c #684A46",
"v  c #734144",
"b  c #794746",
"n  c #6B544A",
"m  c #7E5547",
"M  c #765951",
"N  c #7E6257",
"B  c #525663",
"V  c #5F606F",
"C  c #756B73",
"Z  c #747379",
"A  c #6B6775",
"S  c #842C26",
"D  c #843939",
"F  c #863835",
"G  c #963D37",
"H  c #833027",
"J  c #94413F",
"K  c #8E5E3F",
"L  c #8D413D",
"P  c #A6433C",
"I  c #943E40",
"U  c #844444",
"Y  c #834B4B",
"T  c #884846",
"R  c #944543",
"E  c #9C4A46",
"W  c #9E4D49",
"Q  c #974946",
"!  c #875A46",
"~  c #945549",
"^  c #945745",
"/  c #875654",
"(  c #935C59",
")  c #AA4541",
"_  c #AC4B46",
"`  c #A24C49",
"'  c #A54946",
"]  c #B24E4A",
"[  c #B45A55",
"{  c #B4504C",
"}  c #876746",
"|  c #9C6A4F",
" . c #88655A",
".. c #947856",
"X. c #946952",
"o. c #A66B4B",
"O. c #A66B58",
"+. c #A67056",
"@. c #AE7754",
"#. c #825962",
"$. c #896769",
"%. c #887268",
"&. c #846675",
"*. c #966C72",
"=. c #9B797F",
"-. c #9A6760",
";. c #AF6665",
":. c #B67866",
">. c #A7756B",
",. c #D9574E",
"<. c #C75A53",
"1. c #D45C54",
"2. c #DB5C54",
"3. c #E65E56",
"4. c #D7655A",
"5. c #CA6156",
"6. c #EA614C",
"7. c #E5645A",
"8. c #E96259",
"9. c #E36A5D",
"0. c #EA6C5D",
"q. c #E26057",
"w. c #F0735C",
"e. c #DC6E64",
"r. c #DA7866",
"t. c #DB7471",
"y. c #EB7362",
"u. c #E37966",
"i. c #EB7F68",
"p. c #E67A67",
"a. c #F67563",
"s. c #A0854F",
"d. c #A58857",
"f. c #BB805F",
"g. c #AB9150",
"h. c #B5935C",
"j. c #BC9B5D",
"k. c #B69B57",
"l. c #A9934E",
"z. c #BEA059",
"x. c #BB8869",
"c. c #B99761",
"v. c #A8836C",
"b. c #C2A35E",
"n. c #C68465",
"m. c #C88B68",
"M. c #D28D66",
"N. c #C9906D",
"B. c #DA986E",
"V. c #D89469",
"C. c #C79473",
"Z. c #D99A75",
"A. c #D69A75",
"S. c #E0806B",
"D. c #F2836A",
"F. c #E29D77",
"G. c #E09766",
"H. c #C7A664",
"J. c #DAA07F",
"K. c #DDB76D",
"L. c #E5A275",
"P. c #E1BA6E",
"I. c #847684",
"U. c #9D7A83",
"Y. c #9F939E",
"T. c #8F868F",
"R. c #A8898E",
"E. c #AB8B92",
"W. c #AF959E",
"Q. c #B78990",
"!. c #9A95A2",
"~. c #AC9DA8",
"^. c #B09CA6",
"/. c #9FA7B9",
"(. c #ACA5B1",
"). c #ADAEBA",
"_. c #AFB0BF",
"`. c #B7B6BD",
"'. c #B4ACB5",
"]. c #D08E87",
"[. c #E18F8F",
"{. c #CBA091",
"}. c #D4AC9E",
"|. c #DDAB8E",
" X c #E6AC85",
".X c #E7AD8C",
"XX c #E9B595",
"oX c #F4BE9D",
"OX c #F1BA96",
"+X c #EAB28C",
"@X c #C49CA3",
"#X c #CAAAAA",
"$X c #DEB8A3",
"%X c #CBB6BB",
"&X c #E4BEAB",
"*X c #F4C7A9",
"=X c #EBCEB7",
"-X c #F4CCB6",
";X c #FDD3B9",
":X c #A9ACC3",
">X c #BAB6C5",
",X c #B6B8CC",
"<X c #AEB5C6",
"1X c #C4BBC9",
"2X c #BEC7DE",
"3X c #D7C6CB",
"4X c #C5C4D6",
"5X c #D6CDD5",
"6X c #D8D1D9",
"7X c #FFDDC5",
"8X c #FEE6C6",
"9X c #D9D5E4",
"0X c #DBDFF1",
"qX c #DDE0F1",
"wX c #E3E3ED",
"eX c #E8E5EC",
"rX c #E4E6F4",
"tX c #E5E9F5",
"yX c #EDF3FE",
"uX c #F2F8FF",
"iX c None",
/* pixels */
"iXiXiXiXiXiXiXiXiXiXiXiXiXr k r r r r r iXiXiXiXiXiXiXiXiXiXiXiX",
"iXiXiXiXiXiXiXiXiXiXiXr R _ ` E E ` ` R v iXiXiXiXiXiXiXiXiXiXiX",
"iXiXiXiXiXiXiXiXb R U Q 5.0.8.9.9.8.0.4.Q U T U iXiXiXiXiXiXiXiX",
"iXiXiXiXiXiXiX6 R <.2.4.r.p.7.u.u.8.u.r.4.2.1.W 7 iXiXiXiXiXiXiX",
"iXiXiXiXiXiX  e 4.p.u.8.9.e.q.9.4.q.4.u.u.y.8.3.D   iXiXiXiXiXiX",
"iXiXiXiXiXiX  F 0.y.r.D.8.0.i.y.9.D.y.3.e.u.D.a.P     iXiXiXiXiX",
"iXiXiXiXiXiXX e <.y.i.D.0.0.y.6.6.w.w.3.8.y.D.9.F     iXiXiXiXiX",
"iXiXiXiXiXZ % w [ r.e.2.,.e.[.[.[.t.4.,.1.2.2.<.e o O iXiXiXiXiX",
"iXiXiXiXx 1 x T ) ) _ ] [ @X9XqX9X>XQ.[ ] ] ) ) ~ n 1   iXiXiXiX",
"iXiXiXiX4 4 T.U.S R P ;.#X4X1X4X2X<X1X%X;.P ` S *.!.B   iXiXiXiX",
"iXiXiXiXh @ C ~.%X3X@XL *.U.N / #.#.U.U.H Q.3X%X~.I.h @ iXiXiXiX",
"iXiXiX1 8 9 2 Y.tXuX6XW.E.E.E.R.E.E.E.E.E.6XyXuX(.0 v c - iXiXiX",
"iXiX  % +.A.M A (.5XwXqXtXtXqX0X0X0XrXrXrXeX6X'.I.M B.@.>   iXiX",
"iXiX  o ! L.Z. .b n.}._.:X).`.>X>X>X).).:X}.m.Y M A.L.| =   iXiX",
"iXiXiXiX  a m.+.a x.r.r   8 N.J.J.C.a   q :.m.m / V.! X iXiXiXiX",
"iXiXiXiXiX. 8 } m.A.x.o.K o.M.V.G.M.+.K o.n.A.N.X.9   iXiXiXiXiX",
"iXiXiXiXiXiX  a r.F. XoXoXXXXXXXXXXXOXoX*X+XF.M.s   iXiXiXiXiXiX",
"iXiXiXiXiXiXiXx 7 o. X-X7X7X7X*X*X;X7X7X;X.Xo.u : iXiXiXiXiXiXiX",
"iXiXiXiXiXiXY.z 1 k O.N.|.-X-X X X*X-X$XC.+.b 1 $ iXiXiXiXiXiXiX",
"iXiXiXiXiXz 3 B ).5XT.  0 :.Z.B.B.Z.:.v   A 3X>XV     iXiXiXiXiX",
"iXiXiXiX  & m %./.qX'.5 y R W ^ ^ ~ R D 5 Y.tX<XC } ,   iXiXiXiX",
"iXiXiXv N v.B.N.%.Z $.W ] R l &.&.v I ] ) $.Z %.n.B.x. .b iXiXiX",
"iXiXu Y }.8X*XF.|   & I { G b ~.(./ G { E 5   ! F.OX8X&X( w iXiX",
"iXiXiXU ].-X$X>.6 $ 6 T W D l T.T.M D E ~ 0 $ ; -.$X=X{./ u iXiX",
"iXiXiXiXY / Y 2   6 ..c...c c c n n x m h.d.i . # Y ( U iXiXiXiX",
"iXiXiXiXiXiXiX; o d H.P.H.h.h.h.h.j.h.h.g.g.} -   iXiXiXiXiXiXiX",
"iXiXiXiXiXiXiX= + d j.K.z.k.z.d.d.j.z.k.h.d.f -   iXiXiXiXiXiXiX",
"iXiXiXiXiXiXiX  O q N ..d p } i 8 } p i d...j #   iXiXiXiXiXiXiX",
"iXiXiXiXiXiXiX  o 1 3 < .     + * X > , < 3 3 @   iXiXiXiXiXiXiX",
"iXiXiXiXiXiXiXiXiX    + + iXiXiXiXiXs.d o o . iXiXiXiXiXiXiXiXiX",
"iXiXiXiXiXiXiXiXiXiXiXiXiXiXiXiXiXiXiXiXiXiXiXiXiXiXiXiXiXiXiXiX",
"iXiXiXiXiXiXiXiXiXiXiXiXiXiXiXiXiXiXiXiXiXiXiXiXiXiXiXiXiXiXiXiX"
};
