/* XPM */
static char *result[] = {
/* columns rows colors chars-per-pixel */
"32 32 87 1 ",
"  c #010100",
". c #0B0302",
"X c #09000D",
"o c #080809",
"O c #100B07",
"+ c #1B0E0B",
"@ c #1E160D",
"# c #19121C",
"$ c #231C15",
"% c #29211B",
"& c #222722",
"* c #2A2327",
"= c #242F24",
"- c #2C2B2F",
"; c #332B23",
": c #233024",
"> c #2D362C",
", c #2E392D",
"< c #3B322A",
"1 c #2E2731",
"2 c #303430",
"3 c #323D30",
"4 c #40362F",
"5 c #433836",
"6 c #33432F",
"7 c #37512F",
"8 c #344531",
"9 c #3D4036",
"0 c #3A5334",
"q c #3C5B34",
"w c #3E5738",
"e c #3D6531",
"r c #41463B",
"t c #4C433B",
"y c #405F38",
"u c #406534",
"i c #436B35",
"p c #42623A",
"a c #466D3A",
"s c #486F3C",
"d c #447335",
"f c #477936",
"g c #4A7E36",
"h c #477239",
"j c #49743A",
"k c #4C7C3C",
"l c #507F3F",
"z c #4E4444",
"x c #4F4B46",
"c c #534A42",
"v c #564F4A",
"b c #584E48",
"n c #455241",
"m c #4D5047",
"M c #4F5148",
"N c #54554E",
"B c #5A544E",
"V c #5E5C55",
"C c #605D55",
"Z c #4D7540",
"A c #4F7D41",
"S c #507E41",
"D c #64605A",
"F c #6B6563",
"G c #746D6C",
"H c #48862E",
"J c #47882B",
"K c #4A8C2C",
"L c #4D942C",
"P c #4F992E",
"I c #50972F",
"U c #529A2E",
"Y c #498332",
"T c #4D8C32",
"R c #4D813B",
"E c #50833E",
"W c #4F9630",
"Q c #519632",
"! c #519931",
"~ c #529438",
"^ c #59A32E",
"/ c #5EAC2F",
"( c #5FAD30",
") c #60B02F",
"_ c #60B030",
"` c #518141",
"' c None",
/* pixels */
"''''''''''''''''''''''''''''''''",
"''''''''''',,,''''''''''''''''''",
"'''''''''6pjsjp8'2y8''''''''''''",
"''''''''-SET~~TkjjTj1'''''''''''",
"''''''',jEK^^UI^(^ITj2''''''''''",
"''''''8`RK^)_(()__^IYSy'''''''''",
"'''''-j`HP^/___)_)U!JEEi3'''''''",
"'''''7`kLQ^)__))))^!KRkij8''''''",
"'''''A`kKU^__//)__^PR`kuj3''''''",
"''''0iS`kQQ^^IU^/UWWk`kijp''''''",
"'''0khi`gP!WPWWPIQ!LY`iAihs8''''",
"''3kjijjEKK!!!!UULHTRkiRkijp''''",
"''ajhikfkSkKLLLLHkkE`SdKTkij8'''",
"''sjujKJj``lgkkkSS``SAJUKkej8'''",
"''ajijEYRSk``S`S``kjhk`YEjij8'''",
"''ajjii``kukE``E`kujk``jjhjj8'''",
"''3khjhek`khhkAjahk``A`jijjp''''",
"'''0jjjih`A`kZfKKk``A`kahjs8''''",
"''''0hhhijhh``RLLR`jeiihhe''''''",
"'''''sjhjiihih`kkkiihhhhj8''''''",
"''''#qkhhjjhdieiiihjhhhja,''''''",
"'''' X0jjaqjjjjjhhjupjji= ''''''",
"''''  X>>:*0fjhjhjeMx%,=   '''''",
"''''     +<Brqhhe0NN;.     '''''",
"''''    $tDGGVr9xFGFB< o   '''''",
"''''    O;5NCBbcBCVz<%     '''''",
"''''        5<@$%t;       ''''''",
"'''''     o ..   . o     '''''''",
"''''''                  ''''''''",
"''''''''              ''''''''''",
"''''''''''''''''''''''''''''''''",
"''''''''''''''''''''''''''''''''"
};
